<svg width="208" height="76" viewBox="0 0 208 76" fill="none" xmlns="http://www.w3.org/2000/svg">
<path d="M200.772 17.8348C182.359 52.0389 141.072 68.947 103.719 70.3784C85.2962 71.0894 65.5162 66.4722 54.0379 50.8938C49.1067 44.1158 46.0778 35.8049 47.0936 27.3277C47.6846 22.1934 49.827 16.3573 55.1552 14.5566C63.2538 11.814 66.7166 20.8544 63.0598 26.9676C56.1341 38.2889 38.1178 30.3751 29.8253 25.37C20.1292 19.4785 12.2154 11.2138 5.03106 2.53344C2.98102 0.0586309 -0.564975 3.6231 1.49429 6.07021C10.1561 16.4127 20.0369 26.2011 32.2909 32.1942C41.1836 36.5436 52.9482 39.9234 62.081 34.2812C68.7113 30.1442 71.9156 19.9033 66.8275 13.3377C61.4623 6.42111 51.2121 8.98827 46.5118 15.1845C33.1866 32.4251 48.7189 56.9701 64.0572 66.3984C85.3885 79.5112 114.144 75.8544 137.009 69.1687C164.204 61.1071 189.626 44.8084 202.73 18.9429C203.339 17.7055 201.446 16.5328 200.772 17.8348Z" fill="#FFCD33"/>
<path d="M27.3781 5.76547C25.0972 10.4658 10.3961 2.69042 7.86589 1.60077C5.70505 0.658861 3.15636 -0.50466 1.18943 1.64695C-0.777487 3.79856 0.801592 8.27722 1.29101 10.7797C2.50072 16.9575 3.49803 23.163 4.98476 29.2485C5.70504 32.222 9.93438 30.9661 9.49113 28.0665C8.72468 23.0337 7.61656 18.0287 6.61925 13.0237C6.40686 11.9248 4.53228 6.31954 5.63117 5.59002C7.05863 6.14931 8.4416 6.81611 9.76817 7.58465C14.8194 9.64391 24.3492 12.6174 29.2712 8.9698C29.5849 8.77658 29.8308 8.49057 29.9747 8.15139C30.1187 7.8122 30.1535 7.43664 30.0745 7.07675L29.8806 6.08867C29.831 5.81665 29.6963 5.56741 29.4959 5.37685C29.2955 5.1863 29.0398 5.06426 28.7657 5.02832C28.4915 4.99238 28.213 5.04438 27.9703 5.17686C27.7275 5.30934 27.5331 5.51544 27.4151 5.76548L27.3781 5.76547Z" fill="#FFCD33"/>
<path d="M205.527 19.7094C205.848 19.336 206.057 18.8795 206.13 18.3926C206.202 17.9058 206.136 17.4083 205.938 16.9575C205.74 16.5067 205.419 16.1211 205.011 15.845C204.604 15.5689 204.126 15.4135 203.634 15.3969C203.421 15.3957 203.21 15.4515 203.025 15.5586C202.84 15.6657 202.687 15.8203 202.582 16.0064C202.146 16.8583 201.958 17.8155 202.039 18.7691C202.121 19.7226 202.469 20.634 203.043 21.3993C203.195 21.648 203.421 21.8426 203.69 21.9554C203.958 22.0681 204.256 22.0933 204.539 22.0272C208.15 20.6698 207.402 16.0803 205.786 13.3746C205.448 12.659 204.911 12.0557 204.24 11.6366C203.569 11.2174 202.791 11.0002 202 11.0106C199.996 11.1676 199.091 13.0514 198.971 14.8521C198.777 18.0934 200.569 22.9876 204.641 22.4058C208.713 21.8241 208.556 16.5512 206.737 14.0118C206.307 13.3535 205.734 12.8008 205.06 12.3949C204.387 11.989 203.631 11.7403 202.848 11.6675C202.065 11.5947 201.275 11.6997 200.539 11.9745C199.802 12.2492 199.137 12.6868 198.592 13.2546C196.487 15.5816 196.644 19.5616 199.867 20.7898C200.644 21.1154 201.496 21.2187 202.328 21.0881C203.16 20.9576 203.94 20.5983 204.579 20.0504C205.219 19.5026 205.694 18.7876 205.951 17.9855C206.208 17.1833 206.238 16.3255 206.035 15.5078C205.838 14.7362 205.45 14.0262 204.908 13.4424C204.367 12.8586 203.687 12.4195 202.933 12.1649C202.526 11.9989 202.086 11.9312 201.648 11.9672C201.21 12.0033 200.786 12.1421 200.412 12.3724C200.038 12.6027 199.723 12.918 199.494 13.2927C199.264 13.6674 199.126 14.0909 199.091 14.5289C199.086 15.7583 199.194 16.9855 199.414 18.195C199.443 19.2324 199.798 20.2343 200.43 21.0576C200.973 21.6212 201.692 21.9818 202.469 22.0793C203.245 22.1767 204.031 22.0052 204.696 21.5932C205.443 21.1877 206.055 20.5736 206.459 19.8258C206.862 19.0781 207.039 18.229 206.968 17.3823C206.728 15.1107 205.038 13.4393 203.385 12.0449C202.803 11.4631 201.649 11.3061 201.058 12.0449C200.454 12.7537 199.996 13.5757 199.712 14.4629C199.428 15.3502 199.324 16.2851 199.405 17.2131C199.485 18.1412 199.75 19.0439 200.183 19.8688C200.616 20.6937 201.208 21.4243 201.926 22.018C202.572 22.5166 203.653 22.7844 204.281 22.0088C204.806 21.3709 205.148 20.6019 205.269 19.7845C205.39 18.9671 205.285 18.1321 204.967 17.3695C204.649 16.6069 204.129 15.9454 203.463 15.4563C202.797 14.9672 202.01 14.6689 201.187 14.5936C199.091 14.3442 199.054 17.7425 201.187 17.9364C201.35 17.9989 201.498 18.0933 201.624 18.214C201.75 18.3348 201.85 18.4794 201.919 18.6395C201.988 18.7996 202.024 18.9718 202.025 19.146C202.026 19.3202 201.993 19.4929 201.926 19.654L204.29 19.654C203.879 19.3702 203.529 19.0073 203.261 18.5864C202.992 18.1656 202.811 17.6954 202.726 17.2033C202.642 16.7113 202.657 16.2074 202.77 15.7212C202.883 15.235 203.092 14.7762 203.385 14.3719L201.058 14.3719C201.963 15.1291 204.715 17.2161 203.404 18.5643C202.877 19.0907 202.868 18.9522 202.683 18.4535C202.423 17.3274 202.299 16.1741 202.314 15.0183C202.332 14.7044 202.259 14.7598 202.138 15.1938C202.304 15.2514 202.449 15.3575 202.554 15.4985C202.748 15.8956 203.062 16.1357 203.08 16.6159C203.085 16.8125 203.046 17.0076 202.965 17.1868C202.883 17.3659 202.763 17.5245 202.612 17.6505C202.461 17.7766 202.284 17.867 202.093 17.9149C201.902 17.9628 201.703 17.967 201.511 17.9272C199.83 17.7609 200.181 16.0064 201.067 15.1569C202.222 14.021 203.791 14.9075 204.521 16.228C204.73 16.596 204.863 17.0022 204.912 17.4225C204.962 17.8429 204.926 18.2689 204.807 18.6751C204.41 19.7371 203.496 19.4324 202.96 18.6751C202.441 17.8029 202.161 16.8091 202.148 15.794C202.083 15.0091 202.129 13.3746 203.062 14.5104C203.995 15.6463 205.278 18.8691 203.551 19.5986L205.167 19.8294C204.838 19.4269 204.628 18.9396 204.563 18.4235C204.498 17.9074 204.579 17.3834 204.798 16.9114L203.634 17.8164C203.911 17.724 204.032 17.8441 203.985 18.1673C203.816 18.378 203.731 18.6438 203.746 18.9137C203.76 19.1835 203.874 19.4384 204.065 19.6295C204.256 19.8206 204.511 19.9344 204.781 19.9492C205.051 19.9639 205.317 19.8785 205.527 19.7094Z" fill="#FFCD33"/>
</svg>
